<svg xmlns="http://www.w3.org/2000/svg" viewBox="0 0 236.51 56.51"><defs><style>.a{fill:#fdd636}.c{fill:#fff}</style></defs><path class="a" d="M64.48 29.79H50.9a.32.32 0 00-.32.32v1.79a.32.32 0 00.32.32h10.7a8.5 8.5 0 01-3 3.69 7 7 0 01-4.74 1.5 9.13 9.13 0 01-6-2.53 7.39 7.39 0 01-2.36-5.62 7.86 7.86 0 012.57-5.66 8 8 0 015.63-2.34h.09a7.9 7.9 0 016.95 3.64.32.32 0 00.27.14h2.23a.32.32 0 00.29-.48 10.84 10.84 0 00-4.12-4.54 11.34 11.34 0 00-5.6-1.29 10.76 10.76 0 00-7.71 3 10.28 10.28 0 00-3.15 7.54 9.93 9.93 0 003.26 7.52 11 11 0 007.73 3.15H54a10.9 10.9 0 006.58-2.27 10.35 10.35 0 004.17-7.56.32.32 0 00-.08-.25.33.33 0 00-.24-.11m5.87.69a5.19 5.19 0 011.79-2.82 5.59 5.59 0 017 0 5.42 5.42 0 011.74 2.77zm5.65-6.66a7.6 7.6 0 00-6 2.32A8 8 0 0070 37.68a7.69 7.69 0 005.49 2.29h.1a8 8 0 007.48-5.43.32.32 0 00-.31-.43h-2.1a.32.32 0 00-.29.19 4.91 4.91 0 01-4.71 3.05A5.31 5.31 0 0171.97 36a5.07 5.07 0 01-1.73-3.11h12.9a.32.32 0 00.32-.32v-1.06a7.4 7.4 0 00-2.19-5.2 8 8 0 00-5.34-2.53m18.07.07a6.63 6.63 0 00-4.92 2 6.87 6.87 0 00-2 5v8.41a.32.32 0 00.32.32h2a.32.32 0 00.32-.32v-8.6a4 4 0 011.25-3 4.1 4.1 0 013-1.25 4 4 0 012.93 1.25 4.05 4.05 0 011.28 3v8.6a.32.32 0 00.32.32h2a.32.32 0 00.32-.32v-8.4a6.88 6.88 0 00-2-5 6.61 6.61 0 00-4.9-2m13.72 6.58a5.19 5.19 0 011.79-2.82 5.59 5.59 0 017 0 5.42 5.42 0 011.74 2.77zm5.65-6.66a7.6 7.6 0 00-6 2.32 8 8 0 00.05 11.58 7.69 7.69 0 005.49 2.29h.1a8 8 0 007.48-5.43.32.32 0 00-.31-.43H118a.32.32 0 00-.29.19 4.91 4.91 0 01-4.71 3.05 5.34 5.34 0 01-3.7-1.35 5.07 5.07 0 01-1.73-3.11h12.9a.32.32 0 00.32-.32v-1.06a7.4 7.4 0 00-2.19-5.2 8 8 0 00-5.34-2.53"/><path d="M130.25 24.17h-3.07v-4.83a.32.32 0 00-.32-.32h-2a.32.32 0 00-.32.32v15.68c0 3.26 1.92 4.91 5.71 4.91a.32.32 0 00.32-.32v-1.65a.32.32 0 00-.32-.32c-2.1 0-3.07-.94-3.07-3v-8h3.07a.32.32 0 00.32-.32v-1.84a.32.32 0 00-.32-.32" fill="#fddd00"/><path class="a" d="M136.52 24.19h-1.94a.32.32 0 00-.32.32v14.75a.32.32 0 00.32.32h1.94a.32.32 0 00.32-.32V24.52a.32.32 0 00-.32-.32m0-5.22h-1.94a.32.32 0 00-.32.32v3.45a.32.32 0 00.32.32h1.94a.32.32 0 00.32-.32v-3.49a.32.32 0 00-.32-.32"/><path class="c" d="M160.59 33.83h-2.23a.33.33 0 00-.27.14 7.86 7.86 0 01-2.76 2.46 7.77 7.77 0 01-9.51-1.42 7.94 7.94 0 01-2.29-5.83 7.83 7.83 0 012.37-5.53 7.54 7.54 0 015.5-2.31h.09a7.48 7.48 0 016.58 3.41.32.32 0 00.27.14h2.25a.32.32 0 00.29-.47 10.45 10.45 0 00-3.74-4.09 10.57 10.57 0 00-5.58-1.58A10.41 10.41 0 00141 29.26a10.53 10.53 0 003.1 7.59 10.05 10.05 0 007.38 3.13h.11a10.4 10.4 0 009.32-5.69.32.32 0 00-.29-.48m8.69-9.9a4.94 4.94 0 00-3.81 1.66v-1a.32.32 0 00-.32-.32h-1.84a.32.32 0 00-.32.32v14.69a.32.32 0 00.32.32h2.07a.32.32 0 00.32-.32v-8.83a4.13 4.13 0 01.44-2.11 4.93 4.93 0 011.1-1.14 3.28 3.28 0 012-.68.32.32 0 00.31-.32v-2a.32.32 0 00-.31-.32m18.07.33h-2.07a.33.33 0 00-.3.2l-4.67 11-4.42-11a.32.32 0 00-.3-.2h-2.15a.32.32 0 00-.3.44l5.6 14.18-2.18 5.5a.32.32 0 00.3.44H179a.32.32 0 00.3-.2l8.37-19.93a.32.32 0 00-.3-.45m11.73 13.21a4.81 4.81 0 01-3.65-1.56 5.38 5.38 0 01-1.57-3.77 5.51 5.51 0 011.57-4 4.83 4.83 0 013.64-1.59h.29a5 5 0 013.63 1.73 5.35 5.35 0 011.47 3.85 5.26 5.26 0 01-1.61 3.79 5.09 5.09 0 01-3.76 1.56m.32-13.53a7.49 7.49 0 00-5.76 2.32 7.85 7.85 0 00-2.4 5.72v12.57a.32.32 0 00.32.32h1.92a.32.32 0 00.32-.32v-6.64a7.68 7.68 0 005.13 2.14 7.46 7.46 0 005.74-2.3 8 8 0 002.4-5.8 7.88 7.88 0 00-2.24-5.59 7.51 7.51 0 00-5.43-2.43m17.24.32h-3.07v-4.83a.32.32 0 00-.32-.32h-2a.32.32 0 00-.32.32v15.68c0 3.26 1.92 4.91 5.71 4.91a.32.32 0 00.32-.32v-1.65a.32.32 0 00-.32-.32c-2.1 0-3.07-.94-3.07-3v-8h3.07a.32.32 0 00.32-.32v-1.84a.32.32 0 00-.32-.32m11.73 13.19a4.93 4.93 0 01-3.63-1.71 5.43 5.43 0 01-1.44-3.87 5.25 5.25 0 011.59-3.79 5 5 0 013.69-1.56h.1a4.75 4.75 0 013.6 1.56 5.52 5.52 0 011.6 3.77 5.44 5.44 0 01-1.6 4 4.77 4.77 0 01-3.89 1.58m5.87-11a7.61 7.61 0 00-5.46-2.49 7.39 7.39 0 00-5.73 2.32 8.15 8.15 0 00-.19 11.36 7.55 7.55 0 005.46 2.43h.31a7.45 7.45 0 005.42-2.3 8.05 8.05 0 00.19-11.33M25.19 13.08a40.62 40.62 0 015.11 6.08c4.46 6.63 3.75 13-2.09 19.3a107.15 107.15 0 01-9.12 8.06 27.34 27.34 0 00-4.43 4.49 6.79 6.79 0 00-1.5 5.49 6.93 6.93 0 01-1.86-9.24 19.89 19.89 0 014.38-4.37c2.47-2 5-3.88 7.47-5.85a21.16 21.16 0 003.23-3.22c.24-.29.7-.58.53-1s-.69-.22-1.06-.22H11.56a7.79 7.79 0 01-1.05 0 1.54 1.54 0 01.07-3.07 7.77 7.77 0 01.82 0h16.16a1.42 1.42 0 001.68-1.43 9.76 9.76 0 00-1-5.78 1.23 1.23 0 00-1.33-.7h-8.55c-1.21 0-1.95-.64-1.92-1.57s.72-1.48 1.87-1.49h6.68c1 0 1.26-.23.8-1.19a6 6 0 01-.58-4.35"/><path class="a" d="M8 43.47a13.91 13.91 0 01-2.31-2.38 27.57 27.57 0 01-4.26-6.14c-2.19-4.55-1.74-8.91.89-13.13 2.52-4.06 6.24-6.94 9.83-9.93a59.35 59.35 0 004.82-4.27c2.45-2.53 3-3.69 3.27-7.1a6.62 6.62 0 011.44 9.13 25.7 25.7 0 01-5.54 5.18 77.34 77.34 0 00-8.07 6.58c-.58.58-1.09 1.22-1.62 1.84s-.29.82.41.82H22c.78 0 1.5.11 1.86.92a1.43 1.43 0 01-1.21 2.06 19.8 19.8 0 01-2.11 0h-15c-1.17 0-1.6.46-1.73 1.53a10.16 10.16 0 00.93 5.58 1.37 1.37 0 001.45.9h8.55a1.7 1.7 0 011.69.81c.59 1.05-.13 2.17-1.49 2.19H8.26c-1.44 0-1.44 0-.89 1.34a6.29 6.29 0 01.53 4.06"/><path class="c" d="M20.56 49.68a3.18 3.18 0 11-3.19 3.2 3.21 3.21 0 013.19-3.2"/><path class="a" d="M9 3.07A3 3 0 0112.15 0a3 3 0 013 3.24 3.061 3.061 0 01-6.12-.17"/></svg>