<svg xmlns="http://www.w3.org/2000/svg" viewBox="0 0 134.4 106.35"><defs><style>.b{fill:#fddd00}</style></defs><path d="M29.83 81.14v4.82c0 3.42 0 3.38 3.42 3.34.89 0 1.1-.31 1.09-1.13V76.31c0-3.39 0-3.36-3.43-3.33-.88 0-1.1.29-1.08 1.12v7m-6.36-16.5H6.7c-2.77 0-2.77 0-2.76 2.79 0 1.65 0 1.65 1.7 1.65h34.22c3.48 0 3.06.53 3.14-3.14 0-1-.23-1.33-1.3-1.32-6.07.05-12.15 0-18.23 0m0-53.62H7.22c-3.35 0-3.3 0-3.34 3.3 0 1.06.39 1.19 1.29 1.18H16.7a3 3 0 013.26 2 1.2 1.2 0 001.38.88c1.31-.06 2.62-.07 3.93 0a1.42 1.42 0 001.68-1 2.78 2.78 0 013-1.9H40.3c2.71 0 2.65 0 2.72-2.76 0-1.28-.33-1.75-1.69-1.73-5.94.07-11.88 0-17.82 0m53 91.4h50.51a3.45 3.45 0 003.4-3.58c0-1.39-.07-2.79 0-4.18.08-1.14-.25-1.46-1.43-1.45-13.6 0-27.2.13-40.8-.05-2.8 0-4.57.55-5.32 3.31a.58.58 0 01-.05.12 3.57 3.57 0 01-3.48 2.11 20.71 20.71 0 00-3.41 0c-3.43.5-5.67-.81-6.7-4.11-.36-1.16-1.12-1.39-2.28-1.39H23.52c-.59 0-.9.15-.88.8 0 1.74 0 3.49.08 5.22a3.3 3.3 0 003.24 3.16h50.51m4.49-61.62H48.17c-1 0-1.4.22-1.33 1.29.09 1.43 0 2.87 0 4.31V67.7c0 3.35-1.85 5.18-5.18 5.19h-2.62c-.61 0-.85.17-.85.81v14.64c0 .73.32.87.95.85h28.47c1.87 0 3.78.41 4.37 2.23 1 3.12 3.09 3.45 5.89 3.3a2.26 2.26 0 002.29-1.77c1-2.78 3-3.84 6-3.8 9.09.12 18.19 0 27.28.07 1.14 0 1.46-.26 1.46-1.43q-.06-22.8 0-45.6c0-1.23-.37-1.5-1.53-1.49h-32.4m-81-30.26c1.09-2.65 3.09-3.51 5.91-3.49 11.81.09 23.62 0 35.43 0 3.92 0 5.57 1.66 5.57 5.57v14.51c0 1 .31 1.31 1.33 1.31h22.7c2 0 3 .61 3 1.9s-1 2-3 2H48.34c-1.18 0-1.47.33-1.44 1.46.07 3.06 0 3.06 3.09 3.06h64.43c3.41 0 4.45 1 4.45 4.45v46.53c0 1.13.23 1.49 1.43 1.45 3.08-.08 3.08 0 3.08-3V34.3c0-2 0-2-2-2h-39a7 7 0 01-1.69-.13 1.91 1.91 0 01.09-3.69 6.94 6.94 0 011.44-.09h39.63c3.8 0 5.49 1.71 5.49 5.53v53.85c0 1.1.19 1.61 1.41 1.45a11.77 11.77 0 012.49 0 3.27 3.27 0 013.22 3.44c0 2.13.05 4.27 0 6.4a7.36 7.36 0 01-6.86 7.13c-.52 0-1 .05-1.57.05H27.35a8.59 8.59 0 01-5.46-1.47 7.27 7.27 0 01-3-6v-6c.05-2.35 1.32-3.55 3.71-3.64 1.08 0 2.5.47 3.17-.21s.23-2.16.24-3.28V74.01c0-.91-.26-1.18-1.18-1.17-6.21 0-12.42-.07-18.63.06-2.84.06-4.92-.77-6.11-3.42v-17.1c.72-.81 1.53-1.48 2.7-1s1.26 1.53 1.24 2.63v5.49c0 .94.17 1.26 1.2 1.26q18.3-.06 36.6 0c.95 0 1.28-.2 1.28-1.21q-.05-19.47 0-38.95c0-.88-.19-1.22-1.15-1.2-3.5.05-7 0-10.5 0a1.3 1.3 0 00-1.45 1 2.91 2.91 0 01-3.08 2h-6.82a2.83 2.83 0 01-3-1.89 1.39 1.39 0 00-1.55-1q-5.18.07-10.36 0c-.88 0-1.27.17-1.19 1.13s0 2.09 0 3.13v19.87c0 1.54-.74 2.35-2 2.4-.92 0-1.35-.66-2-1.12z" fill="#231f20"/><path class="b" d="M78.03 0c6.63.18 13.11 3.46 17.92 10 1 1.3.88 2.49-.15 3.2s-2.09.36-3-.87c-8.43-11.22-24-11.21-32.45 0-.93 1.23-2 1.54-3 .85s-1.09-1.85-.14-3.2C61.6 3.76 68.86.04 78.05.03"/><path class="b" d="M76.82 8.03a15.85 15.85 0 0113.13 7.5 2 2 0 010 2.44 1.87 1.87 0 01-2 .7 2.17 2.17 0 01-1.39-1.1c-5.21-7.5-14.8-7.5-20 0-.82 1.17-1.91 1.5-2.89.87s-1.21-1.75-.42-3a15.65 15.65 0 0113.58-7.42"/><path class="b" d="M76.58 16.12a7.57 7.57 0 016.08 3.09 1.9 1.9 0 01-.22 2.79 2 2 0 01-2.81-.32c-2.11-2.2-4-2.2-6.12 0a2 2 0 11-3-2.48 7.61 7.61 0 016.09-3.08M29.22 40.07v4.44c0 .39 0 .73.55.84a4.32 4.32 0 005.4-3.64 8.41 8.41 0 00.08-2.85c-.48-3.12-1.77-4.22-4.9-4.18-.83 0-1.18.21-1.14 1.1.06 1.43 0 2.87 0 4.31m-4-.07v-6.65c0-1.86.68-2.54 2.51-2.58h3.54a7.53 7.53 0 017.54 6 10.94 10.94 0 01-1.3 9.13 6.9 6.9 0 01-5.91 3.3h-3.93c-1.7 0-2.4-.64-2.44-2.35v-6.91m-9.52-2.5c-.69 1.81-1.23 3.27-1.81 4.72-.2.49-.28.82.45.79h2.74c.46 0 .67-.15.49-.61l-1.87-4.89m0-6.86a2.18 2.18 0 012.23 1.5q2.81 7.37 5.57 14.76a1.9 1.9 0 01-1.16 2.54 1.82 1.82 0 01-2.43-1.16c-.35-1.29-1.11-1.42-2.21-1.37-1.53.07-3.06.06-4.59 0a1.17 1.17 0 00-1.33.91c-.56 1.48-1.55 2-2.66 1.62s-1.55-1.51-1-3.05c1.76-4.63 3.54-9.25 5.29-13.89a2.4 2.4 0 012.25-1.85m45.79 45.55v.78c0 2.89 0 2.87 2.93 2.81.78 0 1.11-.22 1.06-1-.06-1.08 0-2.17 0-3.26 0-2.89 0-2.86-2.93-2.8-.76 0-1.13.19-1.06 1s0 1.65 0 2.48m2.06-7.41h5.24c.74 0 1.1-.12 1.08-1v-9.66c0-.71-.18-1-.95-1q-5.37.05-10.74 0c-.81 0-1.06.27-1 1.06v9.53c0 .79.24 1.08 1 1.06h5.37M84.58 63V52.16c0-1.33-.18-1.45-1.31-.85-2.93 1.55-5.83 3.15-8.78 4.68a1.26 1.26 0 00-.76 1.33v11.37a1.26 1.26 0 00.81 1.29c2.9 1.52 5.77 3.09 8.66 4.63 1.2.64 1.37.52 1.38-.89V63.01m3.94.06v11c0 4.13-3.34 6.06-7 4.1l-9.23-4.93a4.43 4.43 0 00-1.07-.48c-1.52-.34-1.84-.07-1.84 1.48v5.88a3.26 3.26 0 01-3.48 3.56c-1.57.06-3.15.05-4.72 0a3.36 3.36 0 01-3.64-3.71V73.7c0-.7-.18-.94-.91-1.06a3.68 3.68 0 01-3.43-4v-11.1c0-2.79 1.49-4.23 4.34-4.25h12.72a4.18 4.18 0 002.11-.53q4.59-2.52 9.22-5c3.6-1.91 6.92 0 6.95 4.08v11.23m5.7-5.94a1.92 1.92 0 01-2-1.23 1.73 1.73 0 01.62-2.21 16.21 16.21 0 013-1.53 1.92 1.92 0 011.63 3.47 11 11 0 01-3.25 1.5m.1 11.67a9.85 9.85 0 013.68 1.94 1.9 1.9 0 01-1.82 3.08 10 10 0 01-3.49-1.72 1.72 1.72 0 01-.47-2.14 1.92 1.92 0 012.1-1.17m2.5-7.78a10.94 10.94 0 011.31 0 1.94 1.94 0 010 3.87 17.68 17.68 0 01-2.74 0 1.94 1.94 0 010-3.87 13 13 0 011.44 0"/></svg>