<svg xmlns="http://www.w3.org/2000/svg" viewBox="0 0 134.4 106.25"><defs><style>.a{fill:#231f20}.b{fill:#fddd00}</style></defs><path class="a" d="M101.67 40.33c-.83 0-1.49 0-2.14-.13-.8-.12-1 0-.69.87a34.9 34.9 0 011.83 6.53c.24 1.25-.21 3 .77 3.63s2.63.09 4 .2c1.1.09 1.22-.42 1.12-1.31a44.5 44.5 0 00-1.38-7.45c-.67-2.35-.67-2.35-3.15-2.34h-.35m-15 40.85h7.86a1.19 1.19 0 00.92-.4 38.77 38.77 0 0011.14-24.51c.07-.81-.28-1-1-.94-1.09 0-2.19.06-3.27 0-.92-.06-1.25.19-1.35 1.19a33.57 33.57 0 01-10 21 48.9 48.9 0 01-4.36 3.7M35.5 66.05c-5.2-16.16-1.3-29.58 11.86-40.52h-6.94a2.24 2.24 0 00-1.82.78 39 39 0 00-9.15 38.53c.14.48.11 1.21 1 1.11a32.32 32.32 0 015.08.05m13.14 20.07a16.23 16.23 0 10-16.33 16.18 16.24 16.24 0 0016.33-16.18m17.74-62.81c-.86.09-2.39.18-3.9.4C42.61 26.54 31.13 49 40.42 66.83a3 3 0 001.38 1.31 20 20 0 019.06 9.66 3 3 0 001.37 1.49 30 30 0 0020.62 3.47c19.63-3.54 30.39-26 20.88-43.53a2.93 2.93 0 00-1.24-1.27 19.94 19.94 0 01-8.81-9.22 2.69 2.69 0 00-1.11-1.23 30.89 30.89 0 00-16.15-4.26m-66.4-6.4a6.55 6.55 0 012.73-2.5c4.82-2.74 9.62-5.54 14.43-8.3 2.93-1.68 5.37-.33 5.42 3.05 0 .92.34 1.11 1.15 1.09h4.33c1.44 0 2.18.74 2.21 1.89s-.78 2-2.23 2h-6.69c-2 0-2.67-.65-2.68-2.67V9.69L4.6 17.82l2.63 1.53c3.44 2 6.9 4 10.33 6 .76.45 1.17.66 1.17-.57 0-2.77.45-3.18 3.2-3.18h31.89a5.72 5.72 0 001.93-.26 33.59 33.59 0 0125.3.95c.24.1.48.18.91.33a16.16 16.16 0 010-5.05c.1-.78-.5-.81-1-1a40.71 40.71 0 00-14.65-2.48H37.7c-1.34-.09-2.12-.86-2.09-2a1.89 1.89 0 012.09-1.87h11.55c6.39 0 12.77 0 19.16.05a39.14 39.14 0 0113.33 2.47c1.06.39 1.36.12 1.78-.82a20.16 20.16 0 0137.91 3.12c.28 1.09.31 2.12-.82 2.76s-2.52 0-2.95-1.58a16.71 16.71 0 00-3.29-6.49 16.25 16.25 0 102.93 15.61c.25-.71.47-1.45 1.21-1.78a1.92 1.92 0 012.1.22 2 2 0 01.6 2.26 19.58 19.58 0 01-3.36 6.48 20 20 0 01-8.65 6.41c-.66.26-1 .46-.73 1.3 4.34 14.76 1.9 28.24-7.64 40.37-.08.1-.14.22-.21.33.07.31.32.24.52.24h9.58c.81 0 1-.23 1-1 .07-3.46 2.5-4.8 5.5-3.08l14.87 8.58c3 1.71 3 4.64.07 6.33q-7.48 4.34-15 8.65c-2.95 1.69-5.39.36-5.46-3 0-.88-.29-1.12-1.14-1.11H98.23a6.22 6.22 0 01-1.43-.11 1.75 1.75 0 01-1.44-1.92 1.64 1.64 0 011.55-1.81c5.68-.17 11.37-.16 17 0 1.07 0 1.56.9 1.63 1.91.05.72 0 1.45 0 2.4l14.11-8.14-13.92-8a3.63 3.63 0 00-.18 1.69c0 1.93-.69 2.59-2.63 2.59H80.25a8.17 8.17 0 00-2.56.43 33.57 33.57 0 01-24.07-1.06c-1-.41-1.36-.52-1.23.78a12.84 12.84 0 01-.13 3.4c-.16.93.19 1.19 1 1.47a41.19 41.19 0 0014.52 2.49h19.16a8.52 8.52 0 011.57.09A1.73 1.73 0 0190 94.49a1.79 1.79 0 01-1.37 2 3.07 3.07 0 01-.91.12c-7.7 0-15.4.15-23.09-.1a39.14 39.14 0 01-12.4-2.53c-.85-.32-1.23-.29-1.65.62a20.16 20.16 0 11-25.83-27.18c.76-.3 1.1-.51.83-1.45-4.06-14.4-1.62-27.57 7.56-39.44.17-.23.47-.41.39-.89h-10.3c-.6 0-.76.28-.73.8a7.11 7.11 0 010 .79 3.22 3.22 0 01-4.85 2.85c-5.41-3-10.76-6.18-16.14-9.28a4.7 4.7 0 01-1.62-2z"/><path class="b" d="M100.29 25.78h3.54a1.82 1.82 0 100-3.63h-4.06a5.76 5.76 0 01-5.67-5.31 5.58 5.58 0 014.54-6c1.21-.22 1.42-.71 1.37-1.78a2 2 0 113.87 0c-.12 1.43.45 1.73 1.69 1.58a7.74 7.74 0 011.7 0 2 2 0 011.92 2 2 2 0 01-2 1.94h-7.08a1.83 1.83 0 10-.1 3.64h3.93a5.76 5.76 0 015.84 5.11 5.6 5.6 0 01-4.69 6.26c-1.12.2-1.14.7-1.14 1.55 0 1.53-.75 2.46-1.93 2.49s-2-.88-2-2.39c.07-1.19-.28-1.68-1.5-1.5a8.88 8.88 0 01-1.7 0 2 2 0 01-2.09-2 1.9 1.9 0 012.06-1.9h3.54zM44.99 1.53h12.58a6.76 6.76 0 011.43.09 1.74 1.74 0 011.44 1.78 1.74 1.74 0 01-1.29 1.9 6.1 6.1 0 01-1.68.16H31.52c-1.45-.09-2.26-.82-2.23-2s.85-1.89 2.33-1.89h13.36m41.49 99.18h12.58a7.68 7.68 0 011.31.06 1.92 1.92 0 01.14 3.74 6.7 6.7 0 01-1.56.13H73.26c-1.65-.05-2.52-.76-2.48-2s.87-1.89 2.47-1.89h13.23"/><path class="a" d="M67.2 32.86a20.46 20.46 0 1020.41 20.46A20.46 20.46 0 0067.2 32.86m0-3.94A24.4 24.4 0 1142.77 53.2 24.4 24.4 0 0167.2 28.93"/><path class="b" d="M30.86 91.65h3.41c1.31 0 2.07-.78 2-1.9s-.77-1.72-2-1.74-2.62 0-3.93 0a5.72 5.72 0 01-5.69-5.12 5.54 5.54 0 014.56-6.22c1.17-.21 1.34-.71 1.27-1.69a2 2 0 011.51-2.29 1.89 1.89 0 012.38 2.16c-.1 1.42.41 1.84 1.73 1.66a7.46 7.46 0 011.7 0 1.93 1.93 0 011.86 2 1.88 1.88 0 01-1.91 1.91c-2.27.05-4.55 0-6.82 0-1.57 0-2.36.63-2.36 1.82s.79 1.82 2.35 1.83h3.67a5.69 5.69 0 015.62 5 5.53 5.53 0 01-4.48 6.27c-1.2.22-1.41.71-1.36 1.77a2 2 0 01-1.93 2.32 2 2 0 01-1.94-2.3c.12-1.4-.41-1.76-1.67-1.59a7.57 7.57 0 01-1.7 0 2 2 0 01-1.93-2.01 1.92 1.92 0 012-1.84h3.67zm34.45-30.97h4.2a2.71 2.71 0 100-5.41h-5.25a6.59 6.59 0 01-.21-13.14c.91-.06 1.24-.35 1.16-1.24a9.06 9.06 0 010-1.83 1.93 1.93 0 013.84 0 11.22 11.22 0 010 2c-.05.82.29 1.07 1.08 1 1-.05 2.1 0 3.15 0 1.46 0 2.27.75 2.25 2s-.85 1.94-2.31 1.95h-8.53a2.64 2.64 0 00-2.49 1.52 2.6 2.6 0 002.24 3.71c1.79.1 3.58 0 5.38.06a6.69 6.69 0 016.55 5.69 6.61 6.61 0 01-4.32 7.15 5 5 0 01-1.85.39c-1 0-1.15.46-1.09 1.28a8.44 8.44 0 01-.08 2 1.74 1.74 0 01-1.83 1.55 1.77 1.77 0 01-1.93-1.59 6.34 6.34 0 01-.07-1.83c.14-1.15-.36-1.43-1.41-1.34a23.73 23.73 0 01-2.89 0c-1.41 0-2.23-.84-2.19-2.06s.84-1.84 2.23-1.86 2.89 0 4.33 0"/></svg>