<svg xmlns="http://www.w3.org/2000/svg" viewBox="0 0 100.45 106.25"><defs><style>.a{fill:#fff}.b{fill:#fddd00}</style></defs><path class="a" d="M38.5 20.14a2.77 2.77 0 00-5.53 0 2.77 2.77 0 105.53 0m41.22 6.15a2.75 2.75 0 00-2.79-2.72 2.765 2.765 0 10.1 5.53 2.73 2.73 0 002.69-2.81M90.18 9.87a2.77 2.77 0 10.12 5.53 2.77 2.77 0 00-.12-5.53m-37-4a2.76 2.76 0 00-2.74-2.78 2.79 2.79 0 100 5.58 2.77 2.77 0 002.74-2.79m-1.7-5.9a9.75 9.75 0 012.5 1.2 5.76 5.76 0 012.12 6.19 1.07 1.07 0 00.45 1.3q8.11 6.21 16.18 12.46a.93.93 0 001.25.13 5.55 5.55 0 015.17-.37.88.88 0 001.15-.24c1.37-1.46 2.76-2.91 4.18-4.32a1.13 1.13 0 00.28-1.49 5.85 5.85 0 013.48-7.77 5.89 5.89 0 113.49 11.25 5.45 5.45 0 01-3.75-.24.86.86 0 00-1.15.25Q84.7 20.6 82.5 22.8a.89.89 0 00-.19 1.17 5.64 5.64 0 01-1.06 6.36 5.54 5.54 0 01-6.06 1.62 5.7 5.7 0 01-4.13-5 3.52 3.52 0 01.12-1.84c.34-.84 0-1.28-.64-1.78q-8-6.07-15.85-12.21a1.09 1.09 0 00-1.45-.11 5.49 5.49 0 01-5.27.21.8.8 0 00-1.07.18q-2.7 2.66-5.44 5.26a1 1 0 00-.29 1.31A5.88 5.88 0 1130 21.55a5.86 5.86 0 017.79-6.91 1.33 1.33 0 001.69-.35c1.7-1.72 3.46-3.38 5.21-5.06A.85.85 0 0045 8.18c-1.34-3.75.29-6.91 4.11-8.07a1.43 1.43 0 00.27-.15z"/><path class="b" d="M66.46 53.4V34.11c0-.75-.17-1-1-1a26.94 26.94 0 01-3.52 0c-1-.07-1.13.31-1.12 1.18 0 6.88.06 13.76 0 20.64a9.81 9.81 0 001.21 5.11 29.46 29.46 0 013.54 12.88c0 .31-.13.75.44.74s.38-.46.41-.75a6.27 6.27 0 000-.73V53.4m13.27 4.17v-15c0-.68-.12-1-.9-1-1.28.06-2.56 0-3.84 0-.66 0-.89.19-.89.88v30.18c0 .67 0 1.11.91 1.05a31.49 31.49 0 013.73 0c.77 0 1-.19 1-1V57.54M10.56 40.33a8.37 8.37 0 01-.62 2c-.64 2.75-2.4 3.59-5.07 3.31-1.75-.18-1.78 0-1.76 1.73 0 2.39-.13 2 1.93 1.87 2.54-.19 4.06.59 4.88 3.16s.93 2.9-.92 4.75c-2.06 2.06-2.05 2.05.25 3.93.4.32.66.39 1 0 .55-.61 1.16-1.18 1.75-1.77a2.79 2.79 0 013.73-.67c.31.14.63.3.95.42 2.51 1 2.78 1.37 2.78 4s.22 2.9 3 2.52c.53-.07.7-.27.69-.78V62a2.71 2.71 0 011.91-2.67q1-.39 2-.83a2.76 2.76 0 013.33.57l2 2c.18.17.35.53.67.27a6.23 6.23 0 002.16-2.32c.2-.55-.82-1-1.24-1.51a4.36 4.36 0 00-.36-.37c-1.81-1.81-1.68-2.26-.94-4.66.83-2.68 2.44-3.47 5-3.22 1.78.17 1.79 0 1.79-1.81s0-2-1.79-1.81c-2.6.24-4.21-.56-5-3.24-.74-2.38-.87-2.85.86-4.59 2.09-2.1 2.08-2.08-.15-4-.47-.41-.71-.31-1.08.08-.63.68-1.31 1.33-2 2a2.68 2.68 0 01-3.15.56c-.7-.3-1.39-.61-2.1-.87a2.71 2.71 0 01-1.92-2.67v-2.8c0-.59-.23-.82-.78-.81h-.93c-1.93 0-2.06 0-1.9 1.94.21 2.54-.61 4.06-3.17 4.89s-2.92.93-4.83-1-1.85-1.85-3.66.07c-.51.54-.68.92 0 1.47a23.91 23.91 0 011.84 1.82 2.83 2.83 0 01.85 1.89m24.91 53.46v1.87c0 .62.18.58.62.53a22.66 22.66 0 006.68-1.79c.36-.16.64-.27.46-.81a1.39 1.39 0 01.74-1.75 1.37 1.37 0 011.8.27c.36.42.59.27.93 0a22.27 22.27 0 004.82-4.82c.23-.31.46-.55 0-.93a1.37 1.37 0 01-.3-1.79 1.42 1.42 0 011.74-.77c.5.14.65 0 .83-.44a23.41 23.41 0 001.79-6.57c.08-.64-.19-.75-.74-.74h-3.21a1.56 1.56 0 01-1.7-1.56c0-.93.63-1.51 1.7-1.54s2.14 0 3.21 0c.56 0 .83-.12.74-.75a23.18 23.18 0 00-1.78-6.57c-.18-.4-.33-.62-.84-.45a1.52 1.52 0 01-1.44-2.57c.35-.32.3-.52.06-.85a22.72 22.72 0 00-4.85-4.86c-.36-.27-.59-.33-.94 0a1.39 1.39 0 01-1.81.24 1.42 1.42 0 01-.72-1.77c.15-.48 0-.6-.39-.76a22.61 22.61 0 00-6.26-1.76c-.45-.06-.76 0-.85.5s-.71.9-.06 1.46a29.24 29.24 0 012.2 2.2 2.63 2.63 0 01.17 3.59 19 19 0 01-3.51 3.52 2.64 2.64 0 01-3.67-.17 22.86 22.86 0 01-2-2.06c-.69-.83-1.23-.07-1.83.05a.85.85 0 00-.77 1 30.43 30.43 0 010 3.11 2.6 2.6 0 01-2.43 2.52 21.61 21.61 0 01-4.86 0 2.66 2.66 0 01-2.52-2.77v-2.91c0-.24.16-.61-.21-.71s-.38.25-.51.44a22 22 0 00-3.39 9.47c-.09.69.19.82.8.8h3.11c1.04 0 1.72.57 1.75 1.49s-.64 1.58-1.76 1.61-2.15 0-3.21 0c-.63 0-.77.22-.69.79a23.14 23.14 0 001.76 6.47c.19.44.36.64.91.48a1.38 1.38 0 011.67.73 1.35 1.35 0 01-.25 1.8c-.48.42-.24.68 0 1a22.63 22.63 0 004.75 4.75c.37.28.62.39 1 0a1.36 1.36 0 011.8-.2 1.32 1.32 0 01.72 1.57c-.22.67.1.83.58 1a23.65 23.65 0 006.38 1.71c.59.08.8-.05.78-.67v-3.42a1.49 1.49 0 011.51-1.52A1.51 1.51 0 0135.55 92v1.76M11.17 64.55A3.1 3.1 0 017.99 64c-.57-.52-.59.08-.71.38a26.18 26.18 0 00-1.77 7.75 28.47 28.47 0 0021.15 29.93 27.82 27.82 0 0023.8-4.23l.51-.36c1-.7 1.9-.66 2.47.1s.37 1.67-.69 2.45a31.29 31.29 0 01-7.43 4.07A31.72 31.72 0 012.73 79.7 30.84 30.84 0 014.8 62.24a1.33 1.33 0 00-.16-1.58 2.54 2.54 0 01.16-3.57c.68-.74 1.39-1.45 2.12-2.13a.79.79 0 00.17-1.16c-.35-.51-.17-1.44-1.24-1.36a23.68 23.68 0 01-2.8 0 2.68 2.68 0 01-2.86-2.56 17.3 17.3 0 010-5 2.63 2.63 0 012.69-2.37 14.38 14.38 0 012.28 0 1.52 1.52 0 001.88-1.22 1.17 1.17 0 00-.32-1.51 25 25 0 01-1.91-1.9 2.6 2.6 0 01-.19-3.66 19.26 19.26 0 013.51-3.51 2.59 2.59 0 013.58.15 24.52 24.52 0 012.02 2.09 1 1 0 001.44.19c.57-.3 1.35-.31 1.22-1.34a18.65 18.65 0 010-2.8 2.64 2.64 0 012.48-2.7 19 19 0 015 0 2.56 2.56 0 012.37 2.46 27.77 27.77 0 010 3.21c-.05 1.06.89.86 1.39 1.22s.8.21 1.17-.19c.66-.71 1.34-1.4 2.05-2.05a2.62 2.62 0 013.74-.15 19.36 19.36 0 013.43 3.45 2.63 2.63 0 01-.12 3.59 15.44 15.44 0 01-1.76 1.76 1.42 1.42 0 00-.43 2c.33.72.67 1 1.45.93s1.73 0 2.59 0a2.7 2.7 0 011.81.67 4.18 4.18 0 002.81 1.31 2.54 2.54 0 00.11-1.22V25.65c0-2.32.73-3.06 3-3.06h6.22a2.26 2.26 0 012.56 2.55v5.08c0 1.15-.6 1.79-1.56 1.78a1.56 1.56 0 01-1.53-1.73c0-1.21-.06-2.42 0-3.63 0-.81-.26-1-1-1a34.6 34.6 0 01-3.63 0c-.78 0-1 .2-1 1V45.2c0 .34 0 .69.37.89a35 35 0 015.15 3.17c0-.52.06-.88.06-1.24V37.75a1.54 1.54 0 011.59-1.56 1.47 1.47 0 011.49 1.63v12.65c0 1.65 0 1.65 1.28 2.88.3-.32.17-.71.17-1.06V33c0-2.32.71-3 3-3h6c2 0 2.74.77 2.74 2.78v39.83c0 .4-.29 1 .56 1.06s.89-.42.89-1.06v-31c0-2.42.72-3.14 3.17-3.14h5.7c2.2 0 2.94.75 2.94 2.92v31.22c0 .39-.33 1 .54 1.06.61 0 .92-.07.91-.82V32.02c0-2.35.74-3.08 3.12-3.08h6c1.83 0 2.68.85 2.68 2.66v21.68c0 1.32-.54 2-1.54 2s-1.57-.71-1.57-2V33.16c0-.93-.25-1.19-1.16-1.13-1.24.08-2.49 0-3.73 0-.52 0-.79.15-.73.71a3.55 3.55 0 010 .41v39.42c0 .93.25 1.19 1.15 1.13a31.89 31.89 0 013.63 0c.71 0 .85-.23.85-.89v-11.2a2.45 2.45 0 01.21-1.31 1.46 1.46 0 011.76-.75 1.44 1.44 0 011.14 1.53v7.05c0 1.52.06 3 0 4.56 0 .87.29 1.06 1.06 1a11.06 11.06 0 011.76 0 1.55 1.55 0 110 3.09H66.68c-1 0-1.33.25-1.44 1.26a31 31 0 01-6.53 16.1c-.73.94-1.44 1.17-2.22.74a1.54 1.54 0 01-.37-2.47 30.63 30.63 0 004-6.76 28.61 28.61 0 00-16.4-37.88c-1.23-.45-1.23-.45-1.29.91a3.73 3.73 0 01-.09 1.23c-.45 1.07.13 1.35 1 1.72A24.88 24.88 0 119.17 78.15a25.27 25.27 0 011.79-13.49"/><path class="b" d="M92.73 79.95a1.79 1.79 0 011.22.58c1.61 1.61 3.24 3.21 4.83 4.84a1.53 1.53 0 010 2.45q-2.38 2.45-4.83 4.84a1.58 1.58 0 01-2.38.1 1.55 1.55 0 01.19-2.3 66.9 66.9 0 013.16-3.14c.55-.51.63-.83 0-1.38-1.15-1-2.22-2.18-3.3-3.29a1.5 1.5 0 01-.33-1.81 1.54 1.54 0 011.44-.89m-10.87 0a1.85 1.85 0 011.3.62c1.58 1.59 3.19 3.17 4.76 4.77a1.56 1.56 0 010 2.53q-2.36 2.41-4.76 4.77a1.58 1.58 0 01-2.37.15c-.67-.7-.61-1.53.21-2.37 1.06-1.09 2.13-2.17 3.23-3.22.45-.43.5-.69 0-1.15-1.16-1.09-2.26-2.23-3.38-3.37a1.49 1.49 0 01-.38-1.79 1.58 1.58 0 011.35-.93m-10.76-.01a1.92 1.92 0 011.29.63c1.59 1.59 3.19 3.16 4.76 4.77a1.6 1.6 0 010 2.53q-2.36 2.4-4.77 4.76a1.56 1.56 0 11-2.19-2.18c1.08-1.11 2.17-2.23 3.3-3.29.49-.46.43-.71 0-1.14-1.15-1.09-2.26-2.24-3.37-3.37a1.49 1.49 0 01-.36-1.8 1.57 1.57 0 011.37-.92"/><path class="a" d="M25.95 85.49a1.89 1.89 0 01.38-1.15q3-5.11 6.07-10.23c.72-1.21 1.44-1.4 2.66-.7q3.68 2.11 7.35 4.24a1.59 1.59 0 01.93 1.79 1.52 1.52 0 01-1.27 1.21 1.89 1.89 0 01-1.36-.38c-1.76-1-3.54-2-5.27-3.08-.71-.44-1-.42-1.49.35-1.62 2.85-3.32 5.65-5 8.46a1.59 1.59 0 01-2.43.65 1.39 1.39 0 01-.57-1.16M21.3 54.78a7.28 7.28 0 10-7.26-7.35 7.32 7.32 0 007.26 7.35m-10.37-7.25A10.41 10.41 0 1121.4 57.9a10.38 10.38 0 01-10.47-10.37"/><path class="a" d="M21.37 48.95a1.49 1.49 0 10-1.55-1.45 1.5 1.5 0 001.55 1.45m-.12 3.12a4.61 4.61 0 114.71-4.5 4.63 4.63 0 01-4.71 4.5"/></svg>