<svg xmlns="http://www.w3.org/2000/svg" viewBox="0 0 86.25 106.24"><path d="M30.54 54.36h1.58a1 1 0 001.07-.79c.16-.67.29-1.34.43-2 .07-.32 0-.53-.39-.53h-5.26c-.24 0-.34.09-.35.36-.07 2.13.72 3 2.85 3zm2.65-36.22a2.56 2.56 0 00-2.58-2.64 2.6 2.6 0 00-2.63 2.6 2.65 2.65 0 002.54 2.62 2.62 2.62 0 002.67-2.57M30.63 39.2h-5.7c-1.18 0-1.77.5-1.75 1.42s.58 1.35 1.72 1.35h11.4c1.11 0 1.7-.51 1.71-1.37s-.61-1.4-1.78-1.4h-5.6m-.17 8.71h5.81c1.1 0 1.71-.5 1.74-1.36s-.59-1.45-1.74-1.45h-11.3c-1.19 0-1.79.5-1.78 1.41s.61 1.4 1.79 1.41h5.5m30.91-19.31a.34.34 0 00-.17-.43A30.94 30.94 0 0048.7 22.7c-.67-.13-.66.29-.78.66a18.28 18.28 0 01-2.53 5.19c-.17.24-.47.43-.39.85a24.41 24.41 0 018.19 2.36c.49-2.69 1-3.15 3.82-3.15h4.38M21.12 63.08a1.67 1.67 0 000-.39 23.47 23.47 0 01-.27-18.82 1 1 0 000-1 4.41 4.41 0 01.82-5.66c.18-.19.46-.31.33-.68a10.44 10.44 0 00-1.45-3.29c-.46-.59-.75-.71-1.3 0a31.13 31.13 0 00-6.19 11.84 30.5 30.5 0 00.31 17.16c.11.36.07.85.69.85h7.15m48.65-21.77h12.45c.67 0 1-.11 1-.89q-.07-3.94 0-7.88c0-.72-.27-.85-.91-.85h-25c-.71 0-.85.25-.84.89v7.78c0 .81.25 1 1 1H69.9M16.63 75.9h12.45c.7 0 1-.16.95-.91v-7.88c0-.65-.14-.89-.85-.89h-25c-.76 0-.92.25-.91.95 0 2.49.06 5 0 7.47 0 1 .21 1.29 1.24 1.28 4-.06 8.09 0 12.14 0m15.47-43.38v.31c.08 1.06-.47 2.47.24 3.06s2 .11 3 .19c.71.06 1-.25 1.12-.88a9.06 9.06 0 012.07-4.12c.67-.7 1.42-1.31 2.14-2A15 15 0 0026.3 3.72a14.33 14.33 0 00-10.35 11.24c-1.23 5.84.63 10.78 5.14 14.67a10.7 10.7 0 013 3.78c.38.86.25 2.16 1.11 2.53s2 .05 3 .11c.72 0 .86-.24.85-.89 0-1.56-.09-3.12 0-4.67.07-1-.21-1.45-1.27-1.71a11.09 11.09 0 01-1.66-20.84 10.91 10.91 0 019 0 1.52 1.52 0 011 2.07 1.55 1.55 0 01-2.15.81l-.48-.19a8.01 8.01 0 10-5.21 15.15c.24.07.57.41.75-.11a2 2 0 00-1-2.43 5.72 5.72 0 118.08-6.57 5.47 5.47 0 01-2.8 6.4 1.92 1.92 0 00-1.21 2.23c0 .6.19.69.73.51a7.91 7.91 0 005.48-5.6 8.09 8.09 0 00-.13-4.7c-.41-1.34.34-2.36 1.56-2.24.86.08 1.2.7 1.44 1.42a11.23 11.23 0 01-6.34 13.72c-.89.38-2.24.17-2.62 1.05s-.08 2-.08 3.07m-9.94 18a20.39 20.39 0 002.25 12.09.86.86 0 00.92.47h4.77a2.62 2.62 0 012.79 2.8 38.93 38.93 0 010 4c-.09 1 .35 1.4 1.17 1.74 7.23 3 14.14 2.45 20.55-2.08a20.45 20.45 0 007.19-24c-.32-.84-.67-1.29-1.68-1.2-1.27.12-2.56 0-3.84 0-2 0-3-1-3-3v-5.08a1.43 1.43 0 00-.92-1.51 21.11 21.11 0 00-8.81-2.45c-2.11-.12-3 .46-3.72 2.46-.17.45-.28.92-.45 1.37a.85.85 0 00.29 1.08 3.7 3.7 0 011.34 2.5c.06.69.39.71 1 .69a12.46 12.46 0 0113.06 12.07 11.83 11.83 0 01-1.59 6.46 1.554 1.554 0 11-2.77-1.41c.13-.28.3-.55.42-.83a9.36 9.36 0 00-9.77-13.1c-.77.08-1 .21-.6 1a4.36 4.36 0 01-2.72 6 1.62 1.62 0 00-1.44 1.64 13.11 13.11 0 01-.35 1.73 3.54 3.54 0 01-1.4 2.35c-.74.47-.52.87-.18 1.41a9.34 9.34 0 0010.84 4c1.28-.39 2.09-.11 2.41.82s-.17 1.71-1.5 2.15a12.34 12.34 0 01-14.94-6.36 1.43 1.43 0 00-1.63-1 5 5 0 01-1.55-.07 4.15 4.15 0 01-3.41-3.93c-.18-1.61-.67-2.82-2.51-3h-.16M32.59-.19c.83.19 1.68.35 2.5.56a18 18 0 0113.63 18c0 .68.05 1 .85 1.2a32.92 32.92 0 0116.25 8.2 2.48 2.48 0 001.84.71h15.46c2.2 0 3.16.95 3.16 3.15v9.54c0 2.14-1 3.12-3.09 3.12h-6.43c-.73 0-.85.18-.68.88a29.3 29.3 0 01.9 6.87 2.72 2.72 0 00.46 1.35c2.15 3.83 4.31 7.64 6.44 11.48a4.89 4.89 0 01-.79 6.26 5 5 0 01-3.49 1.36h-4.46c-.9 0-1.23.26-1.21 1.17 0 2.21.06 4.43 0 6.64a10.41 10.41 0 01-9.91 9.87c-2.11.09-4.22.07-6.33 0-.86 0-1.2.29-1.14 1.15a9.75 9.75 0 010 1.66 1.52 1.52 0 01-3 0 9.58 9.58 0 01.08-3.2 3.59 3.59 0 013.59-2.73c1.83 0 3.67-.09 5.5 0a7.62 7.62 0 008.22-8.18c-.1-1.83 0-3.67 0-5.5 0-2.63 1.45-4 4-4h4.36c2.08 0 2.85-1.35 1.83-3.18q-3.21-5.75-6.45-11.47a5.6 5.6 0 01-.75-2.76 28.89 28.89 0 00-1-7c-.1-.39-.18-.71-.71-.71h-7.29c3.08 9.8 1.49 18.58-6 25.67s-16.29 8.13-25.87 4.59V76a2.6 2.6 0 01-2.72 2.76c-1.48.06-3 0-4.41 0-.2.39.08.52.22.69a10.22 10.22 0 012.34 6.71v15.56c0 1 .3 1.24 1.25 1.23q11.26-.05 22.51 0c1 0 1.35-.37 1.27-1.33a8.62 8.62 0 010-1.76 1.41 1.41 0 011.54-1.36 1.37 1.37 0 011.49 1.41 19.62 19.62 0 010 3.1 3.51 3.51 0 01-3.65 3H29.35a3.62 3.62 0 01-3.94-3.94V86.51a7.84 7.84 0 00-3.23-6.61 5.19 5.19 0 00-3.57-1.19c-5 .07-10 0-15 0-2.55 0-3.44-.9-3.44-3.43v-9.23c0-2.25 1-3.21 3.23-3.21h6.12c.75 0 .82-.18.64-.88q-4.28-16.65 6.21-30.3c1.1-1.42 1.11-1.41 0-2.85A18.11 18.11 0 0128.18-.07a3.38 3.38 0 00.57-.19z" fill="#fddd00"/><path d="M21 69.48h4.56a1.58 1.58 0 011.76 1.49 1.6 1.6 0 01-1.77 1.61h-9.21a1.59 1.59 0 01-1.76-1.62c0-.9.68-1.47 1.76-1.48H21M9.12 72.59H7.26A1.58 1.58 0 015.68 71a1.54 1.54 0 011.64-1.5h3.72a1.52 1.52 0 011.62 1.51 1.58 1.58 0 01-1.58 1.58h-2zm65.07-34.53h-4.55a1.56 1.56 0 110-3.09h9.21a1.59 1.59 0 011.78 1.59c0 .91-.71 1.49-1.86 1.5h-4.55m-11.77-.01h-2a1.56 1.56 0 01-1.57-1.47A1.5 1.5 0 0160.33 35c1.37-.06 2.76-.06 4.13 0a1.43 1.43 0 011.41 1.5 1.5 1.5 0 01-1.49 1.53h-2z" fill="#fff"/></svg>