<svg xmlns="http://www.w3.org/2000/svg" viewBox="0 0 94.84 106.25"><defs><style>.a{fill:#fddd00}.b{fill:#fff}</style></defs><path class="a" d="M40.47 15.25H28.56c-.81 0-1 .24-1 1 .06 1.82.91 2.76 2.79 2.77h20.23c1.88 0 2.72-.95 2.77-2.78 0-.79-.22-1-1-1H40.44m37.27 46V7.23c0-1.39-.58-2-2-2h-11.8c-2.69 0-2.66 0-2.65 2.66 0 .71.25.85.91.85h8.32c2.77 0 3.65.77 3.65 3.54v47.08c0 .37 0 .65.47.79 1 .32 2 .68 3.05 1.06M40.3 12.15h16.43c1 0 1.45-.21 1.41-1.31-.08-2.21 0-4.42 0-6.63 0-.79-.23-1.1-1.08-1.1H23.78c-.84 0-1.1.29-1.09 1.09v6.53c0 1.4 0 1.4 1.39 1.4H40.3m37.47 78.82c-1.05.38-2 .75-2.89 1a.81.81 0 00-.68 1v3.42c0 2.45-.87 3.31-3.34 3.31h-60.7c-2.54 0-3.41-.86-3.41-3.36V34.07c0-1.61.48-2.33 1.55-2.35s1.61.71 1.61 2.4v61.1c0 1 .21 1.37 1.35 1.37q28.46-.06 56.92 0c.93 0 2.16.4 2.73-.18s.1-1.78.18-2.7c.07-.72-.09-1-.94-1a16.54 16.54 0 01-14.43-7.88 1.46 1.46 0 00-1.44-.73h-19.4a5.08 5.08 0 01-1.15-.07 1.47 1.47 0 01-1.21-1.39 1.42 1.42 0 011-1.53 3.5 3.5 0 011.14-.11h18c.79 0 1.34.06 1-1.06a1.32 1.32 0 011.08-1.65 1.48 1.48 0 011.85.79 5 5 0 01.3.88 13.76 13.76 0 0026.54-1 13.46 13.46 0 00-7.57-15 13.72 13.72 0 00-19 8.43c-.41 1.35-1.11 1.86-2.14 1.58s-1.3-1-.93-2.27c.23-.79-.19-.69-.67-.69h-7.38c-1.3 0-2-.61-2-1.6s.71-1.5 2-1.51h8.85a1.33 1.33 0 001.26-.69 16.4 16.4 0 0114-7.61c1 0 1.19-.29 1.19-1.2V13.06a4.47 4.47 0 010-.52c.06-.5-.17-.65-.66-.65h-8.43c-.42 0-.57.14-.7.54a3.52 3.52 0 01-3.74 2.85c-.88 0-1 .33-1 1.09 0 3.51-2.27 5.78-5.86 5.8q-10.17.06-20.34 0a5.48 5.48 0 01-5.84-5.83c0-.8-.19-1.05-1-1.06a3.45 3.45 0 01-3.68-2.78c-.18-.59-.49-.62-1-.62h-7.9c-.82 0-1 .24-1 1v12.87c0 1.13-.61 1.81-1.57 1.81s-1.58-.67-1.58-1.8v-14a2.66 2.66 0 013-3h7.27c2.63 0 2.59 0 2.62-2.57 0-.84-.32-.94-1-.94H5.77c-2.13 0-2.54.39-2.54 2.47v93c0 2.1.39 2.5 2.5 2.5h70.31a1.59 1.59 0 001.77-1.74V91.01m-74 15.33c-2.87-1-3.8-3.05-3.79-5.95Q.1 54.02.02 7.65a5.43 5.43 0 011.08-3.7 4.91 4.91 0 014-1.76h13.91a1.45 1.45 0 001.39-.65 3.84 3.84 0 013.4-1.59h33.83a3.47 3.47 0 013 1.49 1.33 1.33 0 001.3.62h13.6c3.57 0 5.43 1.85 5.43 5.39v54.77a2.34 2.34 0 00.79 1.88 16.28 16.28 0 01-.13 24 1.85 1.85 0 00-.66 1.52c0 3.56-.08 7.13 0 10.68.1 2.91-.93 5-3.81 5.93z"/><path class="b" d="M88.99 63.83c.58-1.27 1.05-2.32 1.54-3.36.16-.33.12-.53-.3-.53h-2.51c-.3 0-.48.07-.31.42.5 1.08 1 2.17 1.58 3.47m0-53.24h2c.66 0 .76-.15.73-.7V7.71c0-2.86.33-2.48-2.5-2.49s-2.82 0-2.82 2.79c0 2.57 0 2.57 2.6 2.57m5.88 21.4V57.5a5 5 0 01-.48 2.2q-1.69 3.62-3.32 7.27a2.11 2.11 0 01-4.08 0c-1.12-2.5-2.27-5-3.42-7.46a4.19 4.19 0 01-.36-1.81V36.95a4.54 4.54 0 01.08-1 1.55 1.55 0 013-.1 4.94 4.94 0 01.12 1.33v18.57c0 .85.22 1.17 1.11 1.11a24.7 24.7 0 013.27 0c.83.05 1-.26 1-1V14.88c0-1-.3-1.24-1.23-1.17a19.68 19.68 0 01-3.05 0c-.92-.08-1.09.28-1.08 1.11V28.2c0 1.7-.49 2.42-1.61 2.41s-1.55-.71-1.55-2.45V6.48c0-3 1.37-4.34 4.45-4.34h3.06c2.62 0 4.14 1.48 4.14 4v25.83M48.28 44.65H34.37a1.66 1.66 0 01-1.84-1.2 1.5 1.5 0 011.14-1.83 4.77 4.77 0 011.15-.09h27.39c1.13 0 1.85.66 1.85 1.58s-.72 1.53-1.86 1.53H48.3m30.19 25.9a1.87 1.87 0 01-.43 1.14c-2.64 3.7-5.26 7.41-7.91 11.11-.85 1.19-1.82 1.26-2.88.22q-3-2.88-5.88-5.79c-.86-.85-.93-1.78-.23-2.45s1.58-.61 2.49.27c1.35 1.31 2.73 2.59 4 4 .7.76 1 .56 1.48-.17 2-2.91 4.09-5.78 6.14-8.66a4.81 4.81 0 01.66-.81 1.47 1.47 0 011.67-.24 1.43 1.43 0 01.9 1.4M22.48 28.24c-1.84 0-1.84 0-1.84 1.75s0 1.76 1.74 1.76 1.81 0 1.81-1.81 0-1.7-1.7-1.7m-5 1.74v-2.59a2.13 2.13 0 012.13-2.24q2.79-.08 5.58 0a2.1 2.1 0 012.12 2.15c.06 1.79.07 3.59 0 5.39a2.16 2.16 0 01-2.34 2.16h-5.16a2.2 2.2 0 01-2.33-2.38v-2.49m4.95 11.37c-1.8 0-1.8 0-1.8 1.72v.1c0 1.66 0 1.66 1.73 1.66s1.83 0 1.81-1.8c0-1.95.27-1.65-1.74-1.69m-.11 6.59H19.7a2.12 2.12 0 01-2.2-2.16v-5.28a2.11 2.11 0 012.14-2.23c1.82-.07 3.65-.06 5.47 0a2.12 2.12 0 012.22 2.17c.06 1.79.07 3.59 0 5.38a2.14 2.14 0 01-2.41 2.14h-2.63m32.52-16.41h-7.26c-1.21 0-2-.61-1.94-1.57s.74-1.54 2-1.54h14.53c1.22 0 2 .61 1.95 1.56s-.75 1.54-2 1.54h-7.26"/><path class="a" d="M41.42 54.67h6.94c1.3 0 2 .61 2 1.59s-.74 1.51-2 1.51h-14a1.7 1.7 0 01-1.79-1 1.43 1.43 0 01.33-1.62 1.91 1.91 0 011.55-.49h6.94M28.1 52.95a1.85 1.85 0 01-.49 1.22c-1.57 2-3.13 4.07-4.71 6.09a1.63 1.63 0 01-2.87 0q-1.6-2-3.15-4a1.56 1.56 0 01.18-2.37 1.6 1.6 0 012.3.45c.55.67 1.1 1.34 1.6 2 .36.51.59.53 1 0 1.07-1.45 2.2-2.86 3.3-4.29a1.58 1.58 0 011.86-.59 1.41 1.41 0 011 1.42m-10.2 13.79a1.81 1.81 0 011.4.71c.54.68 1.11 1.34 1.6 2.05s.7.53 1.11 0c1-1.34 2-2.65 3-4 .75-1 1.65-1.18 2.42-.61a1.62 1.62 0 01.11 2.46q-2.34 3.06-4.71 6.1a1.63 1.63 0 01-2.8 0c-1.12-1.37-2.2-2.77-3.29-4.17a1.53 1.53 0 01-.2-1.74 1.63 1.63 0 011.3-.85m3.59 20.71a1.75 1.75 0 01-1.31-.7c-1.12-1.42-2.25-2.82-3.35-4.25a1.52 1.52 0 01.2-2.22 1.59 1.59 0 012.24.28 22.71 22.71 0 011.55 2c.45.65.75.82 1.3 0 .93-1.34 2-2.6 3-3.88.78-1 1.63-1.19 2.42-.61s.83 1.52.1 2.46c-1.54 2-3.1 4-4.64 6a2 2 0 01-1.5.9"/><path class="b" d="M37.4 31.54h-3.16a1.6 1.6 0 01-1.76-1.53 1.58 1.58 0 011.72-1.57h6.42a1.58 1.58 0 011.72 1.58 1.61 1.61 0 01-1.78 1.52H37.4"/><path class="a" d="M59.13 54.68h3.16a1.61 1.61 0 011.76 1.54 1.59 1.59 0 01-1.74 1.55h-6.42a1.55 1.55 0 110-3.08h3.26M36.16 70.95h-2a1.61 1.61 0 01-1.68-1.62 1.57 1.57 0 011.7-1.47h4.11a1.47 1.47 0 011.6 1.43 1.55 1.55 0 01-1.52 1.65h-2.21M28.92 9.19a5.92 5.92 0 01-1-.07 1.42 1.42 0 01-1.19-1.28 1.38 1.38 0 01.89-1.59 3.8 3.8 0 012.58 0 1.37 1.37 0 011 1.55 1.44 1.44 0 01-1.24 1.35 6.69 6.69 0 01-1 .06m23.08-.06a6.1 6.1 0 01-.95 0 1.44 1.44 0 01-1.32-1.4 1.4 1.4 0 011.1-1.56 4.14 4.14 0 012.28 0 1.39 1.39 0 011 1.59 1.42 1.42 0 01-1.33 1.37 5.62 5.62 0 01-.84 0z"/></svg>